<svg xmlns="http://www.w3.org/2000/svg" version="1.1" xmlns:xlink="http://www.w3.org/1999/xlink" xmlns:svgjs="http://svgjs.com/svgjs" width="50" height="50"><svg viewBox="0 0 500 500" height="50" width="50" x="0" y="0" xmlns="http://www.w3.org/2000/svg">
  <circle style="fill: rgb(216, 216, 216);" cx="243.686" cy="250.142" r="267.862" transform="matrix(0.852353, 0, 0, 0.876007, 39.372868, 25.825672)"></circle>
  <path d="M 224.146 200.266 L 206.646 200.266 L 206.646 196.766 L 203.146 196.766 L 203.146 193.266 L 210.146 193.266 L 210.146 196.766 L 220.646 196.766 L 220.646 175.766 L 227.646 175.766 L 227.646 196.766 L 224.146 196.766 L 224.146 200.266 ZM 252.146 200.266 L 234.646 200.266 L 234.646 196.766 L 231.146 196.766 L 231.146 179.266 L 234.646 179.266 L 234.646 175.766 L 252.146 175.766 L 252.146 179.266 L 255.646 179.266 L 255.646 196.766 L 252.146 196.766 L 252.146 200.266 Z M 238.146 179.266 L 238.146 196.766 L 248.646 196.766 L 248.646 179.266 L 238.146 179.266 Z" transform="matrix(5.778811931610107, -0.5733540058135986, -0.17561601102352142, 7.1471991539001465, -1059.506591796875, -978.8532104492188)" style="fill: rgb(51, 51, 51); white-space: pre;"></path>
</svg><style>@media (prefers-color-scheme: light) { :root { filter: none; } }
</style></svg>